HIERARCHY
ROOT pelvis
{
  OFFSET 0 100 0
  CHANNELS 6 Xposition Yposition Zposition Zrotation Xrotation Yrotation
  JOINT pelvis_right_femur
  {
    OFFSET -10.78128 -3.44521 -0.5502486
    CHANNELS 3 Zrotation Xrotation Yrotation
    JOINT right_femur_tibia
    {
      OFFSET -0.8047443 -44.0398 -0.1307829
      CHANNELS 3 Zrotation Xrotation Yrotation
      JOINT right_tibia_foot
      {
        OFFSET 3.006224 -47.83518 -5
        CHANNELS 3 Zrotation Xrotation Yrotation
        End Site
        {
          OFFSET 0 -5 15
        }
      }
    }
  }
  JOINT pelvis_left_femur
  {
    OFFSET 10.78128 -3.44521 -0.5502486
    CHANNELS 3 Zrotation Xrotation Yrotation
    JOINT left_femur_tibia
    {
      OFFSET 0.8047443 -44.0398 -0.1307829
      CHANNELS 3 Zrotation Xrotation Yrotation
      JOINT left_tibia_foot
      {
        OFFSET -4.370144 -48.10324 -4.275266
        CHANNELS 3 Zrotation Xrotation Yrotation
        End Site
        {
          OFFSET 0 -5 15
        }
      }
    }
  }
  JOINT pelvis_spine1
  {
    OFFSET 0 6.468898 -3.129235
    CHANNELS 3 Zrotation Xrotation Yrotation
    JOINT spine1
    {
      OFFSET 0 23.15396 4.99043
      CHANNELS 3 Zrotation Xrotation Yrotation
      JOINT spine2
      {
        OFFSET 0 20.79997 -5.064912
        CHANNELS 3 Zrotation Xrotation Yrotation
        JOINT neck
        {
          OFFSET 0 14.38658 9.616178
          CHANNELS 3 Zrotation Xrotation Yrotation
          End Site
          {
            OFFSET 0 20 0
          }
        }
      }
      JOINT right_manubrium
      {
        OFFSET -5.722621 16.35077 3.967754
        CHANNELS 3 Zrotation Xrotation Yrotation
        JOINT right_clavicle
        {
          OFFSET -13.16364 1.694482 -4.693211
          CHANNELS 3 Zrotation Xrotation Yrotation
          JOINT right_humerus
          {
            OFFSET -28.5034 -0.3100689 -2.792744
            CHANNELS 3 Zrotation Xrotation Yrotation
            JOINT right_radius
            {
              OFFSET -25.15693 0.02248979 -1.271978
              CHANNELS 3 Zrotation Xrotation Yrotation
              End Site
              {
                OFFSET -15 0 0
              }
            }
          }
        }
      }
      JOINT left_manubrium
      {
        OFFSET 5.722621 16.35077 3.967754
        CHANNELS 3 Zrotation Xrotation Yrotation
        JOINT left_clavicle
        {
          OFFSET 13.16364 1.694482 -4.693211
          CHANNELS 3 Zrotation Xrotation Yrotation
          JOINT left_humerus
          {
            OFFSET 29.39168 -1.063119 -2.237045
            CHANNELS 3 Zrotation Xrotation Yrotation
            JOINT left_radius
            {
              OFFSET 24.59957 -0.9528479 0.9047498
              CHANNELS 3 Zrotation Xrotation Yrotation
              End Site
              {
                OFFSET 15 -0 -0
              }
            }
          }
        }
      }
    }
  }
}
MOTION
Frames: 13
Frame Time: 0.0416666666667
0 103.5113 0 0.640529 -2.375164 0.06938061 2.578566 -11.20146 8.868752 -0 39.38793 -0 -8.112294 -18.97368 -5.104045 -5.744605 10.05887 -23.31613 -0 4.54705 -0 5.710326 -14.78895 25.21006 -1.934478 -2.988415 4.663805 2.513732 8.94512 -7.562439 1.703871 20.63755 7.268636 3.72801 -25.78699 10.28856 6.54292 -19.00709 10.88979 85.31338 33.83964 -20.7102 -0 0 17.62942 -4.658653 7.324479 1.791165 7.649153 -20.23303 -1.164829 -95.19595 25.83464 22.84242 0 0 -16.3559 9.739972 16.5295 2.794925
0.2429539 103.6032 1.612251 0.6439513 -1.65875 0.1451545 2.90093 -13.72068 9.434664 -0 39.51199 -0 -7.024665 -18.48925 -4.959595 -6.005508 10.97526 -23.78672 -0 4.307807 -0 5.520207 -16.06965 25.47391 -1.937264 -3.014735 4.675425 2.488313 8.909954 -7.542571 1.723248 20.65517 7.263605 3.736134 -25.75107 10.30947 6.569416 -19.02671 10.85925 85.26497 33.76451 -20.72765 -0 0 17.80012 -4.538082 7.234634 1.64629 7.680896 -20.19642 -1.182087 -95.33931 25.95799 22.97079 0 0 -16.24785 9.656528 16.64737 2.884739
0.485672 103.494 3.410281 0.439153 -1.492692 0.2112559 3.797748 -18.53779 7.721377 -0 36.03838 -0 -8.014275 -12.4793 -3.430688 -6.275544 12.28779 -22.85545 -0 4.726149 -0 6.496674 -18.31572 25.76322 -1.900999 -2.901919 4.532292 2.676718 9.045438 -7.785655 1.61687 20.58018 7.293316 3.657053 -26.05298 10.22028 6.374292 -18.82211 10.98946 85.93622 34.06712 -21.25197 -0 0 16.56406 -4.926206 7.54562 2.278317 7.504183 -20.54534 -1.115964 -94.50657 25.97307 22.09445 0 0 -17.6136 9.598887 16.06631 3.153541
0.7234693 103.2712 5.373321 0.2211469 -0.6044104 0.3124343 4.541922 -22.32033 7.386261 -0 33.19788 -0 -7.575762 -10.41727 -2.818551 -6.390461 12.9904 -22.31168 -0 4.874569 -0 6.276975 -19.95751 25.32112 -1.873248 -2.866115 4.403104 2.804096 9.086525 -7.973388 1.574989 20.54503 7.322496 3.596277 -26.27106 10.23055 6.266536 -18.64876 11.03715 86.4729 34.18919 -21.81684 -0 0 15.76632 -4.985599 7.681752 2.499555 7.429594 -20.79052 -1.086915 -94.00948 26.20597 21.48064 0 0 -18.65949 9.464433 15.83367 3.470811
0.9564403 102.9039 7.643799 -0.1085427 0.6115678 0.4727923 5.451354 -26.36472 7.089111 -0 29.33439 -0 -6.946889 -8.65335 -2.252065 -6.408994 13.51976 -21.42871 -0 5.393701 -0 5.560008 -21.53392 24.23507 -1.851908 -2.786605 4.313729 2.913922 9.171318 -8.13681 1.497372 20.50591 7.341778 3.558156 -26.42104 10.14045 6.140684 -18.50414 11.11791 86.93189 34.36616 -22.20434 -0 0 14.96784 -5.27439 7.859708 2.896966 7.31884 -21.03766 -1.072224 -93.45884 26.27177 20.89123 0 0 -19.59729 9.337792 15.44386 3.750092
1.182698 102.4417 10.28449 -0.4888216 1.811845 0.7013212 6.367035 -29.44598 7.074394 -0 25.8802 -0 -6.23894 -8.007508 -2.02046 -6.301801 13.8159 -20.50014 -0 6.613336 -0 4.415562 -22.43091 22.67916 -1.832866 -2.721264 4.227479 3.008806 9.236364 -8.288428 1.431911 20.47661 7.36252 3.526062 -26.54684 10.06785 6.033598 -18.36312 11.18148 87.36473 34.50645 -22.60309 -0 0 14.25805 -5.507392 8.004574 3.211582 7.229381 -21.26531 -1.068777 -92.97282 26.38695 20.34959 0 0 -20.47521 9.185236 15.1235 4.051406
1.402013 101.9472 13.38421 -0.9253459 2.860838 0.9933574 7.283988 -31.65614 7.077136 -0 22.74956 -0 -5.741687 -7.8146 -1.959905 -6.083567 13.94918 -19.4112 -0 8.868625 -0 3.00353 -22.62599 20.69914 -1.819091 -2.640182 4.168685 3.082776 9.313977 -8.413954 1.355392 20.45081 7.377709 3.509458 -26.61831 9.951941 5.928546 -18.24551 11.25279 87.72276 34.65563 -22.88881 -0 0 13.61789 -5.837134 8.154456 3.576767 7.13212 -21.47368 -1.077906 -92.50772 26.42854 19.86782 0 0 -21.22926 9.028622 14.75896 4.333448
1.614627 101.4991 16.98199 -1.37016 3.496799 1.320913 8.075824 -32.6334 6.95378 -0 20.37623 -0 -5.727653 -7.916959 -2.051572 -5.763111 13.90385 -18.22404 -0 12.28984 -0 1.610637 -21.96012 18.55935 -1.809075 -2.554786 4.128167 3.138311 9.391335 -8.518757 1.276991 20.43116 7.39002 3.503535 -26.64966 9.8174 5.830572 -18.14455 11.32213 88.0252 34.7966 -23.10907 -0 0 13.05324 -6.204655 8.294677 3.943968 7.036577 -21.6615 -1.097776 -92.08303 26.45266 19.44588 0 0 -21.88789 8.8521 14.39346 4.623743
1.821798 101.1877 21.08884 -1.783127 3.624994 1.644051 8.666777 -32.35136 6.580035 -0 18.76537 -0 -6.304402 -8.057884 -2.224276 -5.359235 13.62174 -16.93834 -0 16.88095 -0 0.4214602 -20.47129 16.44453 -1.803714 -2.45732 4.114032 3.171861 9.476171 -8.596744 1.19135 20.41673 7.397211 3.510831 -26.62979 9.648554 5.735469 -18.06737 11.39516 88.25365 34.93872 -23.22529 -0 0 12.56821 -6.651927 8.434207 4.347121 6.935116 -21.82538 -1.129337 -91.69372 26.42997 19.09543 0 0 -22.4257 8.656413 13.99885 4.916816
2.024257 101.0975 25.66506 -2.111901 3.197027 1.915192 9.004767 -30.81054 5.916214 -0 17.86996 -0 -7.468745 -8.105634 -2.418746 -4.892852 12.99514 -15.59082 -0 22.41011 -0 -0.410585 -18.28884 14.56635 -1.802767 -2.349173 4.126905 3.181837 9.566037 -8.646522 1.100034 20.40885 7.399316 3.53074 -26.55845 9.448468 5.643422 -18.01541 11.46993 88.40624 35.07763 -23.23851 -0 0 12.17079 -7.173697 8.569922 4.780579 6.828042 -21.96213 -1.17269 -91.34892 26.37569 18.82622 0 0 -22.84122 8.429811 13.58184 5.228807
2.220657 101.295 30.62564 -2.316568 2.271524 2.093181 9.101534 -28.1337 5.020801 -0 17.49731 -0 -9.065773 -8.019805 -2.57502 -4.382462 11.88378 -14.21462 -0 28.50066 -0 -0.857683 -15.63364 13.05973 -1.80645 -2.228154 4.17107 3.164937 9.662345 -8.66362 1.002308 20.40818 7.395426 3.563939 -26.42953 9.213299 5.552982 -17.99319 11.54725 88.47201 35.21309 -23.13061 -0 0 11.87135 -7.785388 8.704715 5.254281 6.712511 -22.06688 -1.22853 -91.05385 26.28645 18.65144 0 0 -23.11902 8.165099 13.13631 5.567265
2.406507 101.8064 35.84476 -2.374432 0.9699174 2.150287 9.003354 -24.51227 4.015386 -0 17.39483 -0 -10.84908 -7.870748 -2.650764 -3.838876 10.14791 -12.85057 -0 34.61241 -0 -0.972705 -12.77822 12.01471 -1.814574 -2.094729 4.249081 3.118087 9.763617 -8.644254 0.8995771 20.41608 7.385279 3.610148 -26.23992 8.944887 5.463938 -18.00445 11.62578 88.44336 35.34092 -22.89234 -0 0 11.68295 -8.489831 8.839263 5.767507 6.587639 -22.13396 -1.297075 -90.81879 26.17096 18.58585 0 0 -23.248 7.851624 12.6668 5.945863
2.575272 102.6001 41.17458 -2.28755 -0.5426456 2.075094 8.766058 -20.19189 3.039309 -0 17.28158 -0 -12.53332 -7.818312 -2.634773 -3.261629 7.683605 -11.5347 -0 40.11055 -0 -0.8652587 -10.00351 11.46971 -1.826752 -1.949544 4.363358 3.038259 9.868474 -8.584316 0.7937031 20.43366 7.368724 3.66862 -25.98686 8.646372 5.375994 -18.05311 11.7043 88.31247 35.45682 -22.51305 -0 0 11.61886 -9.290661 8.977084 6.32006 6.452373 -22.15707 -1.378106 -90.65348 26.03508 18.64395 0 0 -23.21583 7.481352 12.1788 6.375048
